<svg xmlns="http://www.w3.org/2000/svg" viewBox="0 0 516 452"><path d="M258 194c-79.4 0-192 122.8-192 200.3 0 34.9 26.8 55.8 71.7 55.8 48.8 0 81.1-25.1 120.3-25.1 39.5 0 71.9 25.1 120.3 25.1 44.9 0 71.7-20.9 71.7-55.8C450 316.8 337.4 194 258 194zm-147.3-12.6c-10.4-34.7-42.4-57.1-71.6-50.1-29.1 7-44.3 40.7-33.9 75.3s42.4 57.1 71.6 50.1c29.2-6.9 44.3-40.7 33.9-75.3h0zm84.7-20.8c30.9-8.1 46.4-49.9 34.6-93.4s-46.5-72-77.5-63.9-46.4 50-34.5 93.4 46.5 72.1 77.4 63.9zm281.4-29.3c-29.1-7-61.1 15.5-71.6 50.1-10.4 34.7 4.8 68.4 33.9 75.3 29.1 7 61.1-15.5 71.6-50.1 10.4-34.6-4.7-68.4-33.9-75.3h0zm-156.2 29.3c30.9 8.1 65.6-20.4 77.5-63.9s-3.6-85.2-34.6-93.4-65.7 20.5-77.5 64 3.6 85.2 34.6 93.3z" fill="#b3754b" stroke="#fff" stroke-width="5" stroke-miterlimit="10"/></svg>