<?xml version="1.0" encoding="utf-8"?>
<!-- Generator: Adobe Illustrator 22.0.0, SVG Export Plug-In . SVG Version: 6.00 Build 0)  -->
<svg version="1.1" id="Layer_1" xmlns="http://www.w3.org/2000/svg" xmlns:xlink="http://www.w3.org/1999/xlink" x="0px" y="0px"
	 viewBox="0 0 623 426" style="enable-background:new 0 0 623 426;" xml:space="preserve">
<style type="text/css">
	.st0{fill:#FFFFFF;}
</style>
<path class="st0" d="M421.9,61H178.1c-8.4,0-15.1,6.8-15.1,15.1v243.8c0,8.3,6.8,15.1,15.1,15.1h131.2V228.9h-35.7v-41.4h35.7V157
	c0-35.4,21.6-54.7,53.2-54.7c15.1,0,28.1,1.1,31.9,1.6v37l-21.9,0c-17.2,0-20.5,8.2-20.5,20.1v26.4h41l-5.3,41.4h-35.6V335h69.8
	c8.3,0,15.1-6.8,15.1-15.1V76.1C437,67.8,430.2,61,421.9,61z"/>
</svg>
