<?xml version="1.0" encoding="utf-8"?>
<!-- Generator: Adobe Illustrator 22.0.0, SVG Export Plug-In . SVG Version: 6.00 Build 0)  -->
<svg version="1.1" id="Layer_1" xmlns="http://www.w3.org/2000/svg" xmlns:xlink="http://www.w3.org/1999/xlink" x="0px" y="0px"
	 viewBox="0 0 503 326" style="enable-background:new 0 0 503 326;" xml:space="preserve">
<style type="text/css">
	.st0{fill:#FFFFFF;}
</style>
<path class="st0" d="M238,67.5c33.4,0,37.3,0.1,50.5,0.7c33.9,1.5,49.7,17.6,51.2,51.2c0.6,13.2,0.7,17.1,0.7,50.5
	c0,33.4-0.1,37.3-0.7,50.5c-1.6,33.6-17.3,49.7-51.2,51.2c-13.2,0.6-17.1,0.7-50.5,0.7c-33.4,0-37.3-0.1-50.5-0.7
	c-34-1.6-49.7-17.7-51.2-51.3c-0.6-13.2-0.7-17.1-0.7-50.5c0-33.4,0.1-37.3,0.7-50.5c1.6-33.6,17.3-49.7,51.2-51.2
	C200.7,67.7,204.6,67.5,238,67.5z M238,45c-33.9,0-38.2,0.1-51.5,0.8c-45.4,2.1-70.6,27.3-72.7,72.7c-0.6,13.3-0.8,17.6-0.8,51.5
	s0.1,38.2,0.8,51.5c2.1,45.4,27.3,70.6,72.7,72.7c13.3,0.6,17.6,0.8,51.5,0.8s38.2-0.1,51.5-0.8c45.4-2.1,70.6-27.3,72.7-72.7
	c0.6-13.3,0.8-17.6,0.8-51.5s-0.1-38.2-0.8-51.5c-2-45.4-27.3-70.6-72.7-72.7C276.2,45.1,271.9,45,238,45z M238,105.8
	c-35.4,0-64.2,28.7-64.2,64.2s28.7,64.2,64.2,64.2s64.2-28.7,64.2-64.2C302.2,134.6,273.4,105.8,238,105.8z M238,211.7
	c-23,0-41.7-18.6-41.7-41.7c0-23,18.7-41.7,41.7-41.7s41.7,18.7,41.7,41.7C279.7,193,261,211.7,238,211.7z M304.7,88.3
	c-8.3,0-15,6.7-15,15s6.7,15,15,15c8.3,0,15-6.7,15-15S313,88.3,304.7,88.3z"/>
</svg>
