<?xml version="1.0" encoding="utf-8"?>
<!-- Generator: Adobe Illustrator 22.0.0, SVG Export Plug-In . SVG Version: 6.00 Build 0)  -->
<svg version="1.1" id="Layer_1" focusable="false" xmlns="http://www.w3.org/2000/svg" xmlns:xlink="http://www.w3.org/1999/xlink"
	 x="0px" y="0px" viewBox="0 0 516 452" style="enable-background:new 0 0 516 452;" xml:space="preserve">
<style type="text/css">
	.st0{fill:#B3754B;stroke:#FFFFFF;stroke-width:5;stroke-miterlimit:10;}
</style>
<path class="st0" d="M258,194c-79.4,0-192,122.8-192,200.3c0,34.9,26.8,55.8,71.7,55.8c48.8,0,81.1-25.1,120.3-25.1
	c39.5,0,71.9,25.1,120.3,25.1c44.9,0,71.7-20.9,71.7-55.8C450,316.8,337.4,194,258,194z M110.7,181.4
	c-10.4-34.7-42.4-57.1-71.6-50.1c-29.1,7-44.3,40.7-33.9,75.3s42.4,57.1,71.6,50.1C106,249.8,121.1,216,110.7,181.4L110.7,181.4z
	 M195.4,160.6c30.9-8.1,46.4-49.9,34.6-93.4s-46.5-72-77.5-63.9S106.1,53.3,118,96.7S164.5,168.8,195.4,160.6z M476.8,131.3
	c-29.1-7-61.1,15.5-71.6,50.1c-10.4,34.7,4.8,68.4,33.9,75.3c29.1,7,61.1-15.5,71.6-50.1C521.1,172,506,138.2,476.8,131.3
	L476.8,131.3z M320.6,160.6c30.9,8.1,65.6-20.4,77.5-63.9s-3.6-85.2-34.6-93.4S297.8,23.8,286,67.3S289.6,152.5,320.6,160.6z"/>
</svg>
