<?xml version="1.0" encoding="utf-8"?>
<!-- Generator: Adobe Illustrator 22.0.0, SVG Export Plug-In . SVG Version: 6.00 Build 0)  -->
<svg version="1.1" id="Layer_1" xmlns="http://www.w3.org/2000/svg" xmlns:xlink="http://www.w3.org/1999/xlink" x="0px" y="0px"
	 viewBox="0 0 968 185" style="enable-background:new 0 0 968 185;" xml:space="preserve">
<style type="text/css">
	.st0{fill:#2C2C2C;}
	.st1{enable-background:new    ;}
	.st2{fill:#333333;}
	.st3{fill:#B3754B;}
</style>
<g>
	<rect x="2" y="5" class="st0" width="965" height="10"/>
</g>
<g class="st1">
	<path class="st2" d="M37.7,20v13.5H26.4V79H12.9V33.6H1.7V20H37.7z"/>
	<path class="st2" d="M72.6,20.3h13.5V79H72.6V56.8h-17V79H42.1V20.3h13.5v23h17V20.3z"/>
	<path class="st2" d="M129.7,33.8h-24.2v8.9h19.6v13.5h-19.6v9.3h24.2V79H92V20.4l37.7-0.1V33.8z"/>
</g>
<g class="st1">
	<path class="st3" d="M165.4,19.8c7.5,0.4,14.6,2.2,21.3,5.4c6.7,3.2,12.5,7.4,17.4,12.6c4.9,5.2,8.8,11.2,11.6,18
		c2.8,6.8,4.3,14.1,4.3,21.9c0,7.6-1.4,14.8-4.2,21.5s-6.6,12.5-11.5,17.6c-4.9,5.1-10.7,9.1-17.3,12.2c-6.6,3-13.8,4.8-21.5,5.2
		h-26.2V19.6h26.2V19.8z M165.4,107.7c4-0.4,7.8-1.5,11.2-3.2c3.5-1.7,6.5-3.9,9-6.5c2.5-2.6,4.5-5.7,6-9.2
		c1.4-3.5,2.2-7.2,2.2-11.2c0-4-0.7-7.9-2.2-11.5c-1.4-3.7-3.5-6.9-6-9.8c-2.6-2.8-5.6-5.2-9-7c-3.4-1.8-7.1-2.9-11.2-3.3V107.7z"/>
	<path class="st3" d="M275,20.1c7.8,0,15.2,1.5,22.1,4.5c6.9,3,13,7.1,18.1,12.2s9.2,11.1,12.2,18.1c3,6.9,4.5,14.3,4.5,22.2
		c0,7.9-1.5,15.2-4.5,22.2c-3,6.9-7.1,12.9-12.2,18.1s-11.2,9.2-18.1,12.2c-6.9,3-14.3,4.5-22.1,4.5c-7.8,0-15.2-1.5-22.1-4.5
		c-6.9-3-12.9-7.1-18-12.2c-5.1-5.1-9.2-11.1-12.2-18.1c-3-6.9-4.5-14.3-4.5-22.2c0-7.9,1.5-15.2,4.5-22.2c3-6.9,7-12.9,12.2-18.1
		c5.1-5.1,11.1-9.2,18-12.2C259.8,21.6,267.2,20.1,275,20.1z M275.1,107.7c4.2,0,8.2-0.8,11.9-2.4c3.7-1.6,7-3.8,9.8-6.6
		s5-6,6.6-9.8c1.6-3.7,2.4-7.7,2.4-11.9c0-4.2-0.8-8.2-2.4-11.9c-1.6-3.7-3.8-7-6.6-9.8s-6-5-9.8-6.6c-3.7-1.6-7.7-2.4-11.9-2.4
		c-4.2,0-8.2,0.8-11.9,2.4c-3.7,1.6-7,3.8-9.8,6.6s-5,6-6.6,9.8c-1.6,3.7-2.4,7.7-2.4,11.9c0,4.2,0.8,8.2,2.4,11.9
		c1.6,3.7,3.8,7,6.6,9.8s6,5,9.8,6.6C266.9,106.9,270.9,107.7,275.1,107.7z"/>
	<path class="st3" d="M432.4,70.3V134h-26.4v-2.8c-2.9,1-5.9,1.8-8.9,2.2c-3,0.5-6.1,0.7-9.1,0.7c-7.3,0-14.5-1.4-21.5-4.2
		c-7-2.8-13.3-7-18.9-12.6s-9.7-11.9-12.5-18.8c-2.7-7-4.1-14.1-4.1-21.5c0-7.3,1.4-14.5,4.1-21.5c2.7-7,6.9-13.3,12.5-18.9
		s11.9-9.8,18.9-12.6c7-2.8,14.2-4.2,21.5-4.2c7.3,0,14.5,1.4,21.5,4.2c7,2.8,13.3,7,18.9,12.6L410,55.3c-3-3-6.4-5.2-10.2-6.7
		c-3.8-1.5-7.7-2.2-11.6-2.2c-3.9,0-7.8,0.8-11.6,2.2c-3.8,1.5-7.2,3.7-10.2,6.7c-3,3-5.3,6.4-6.8,10.2c-1.5,3.8-2.3,7.7-2.3,11.6
		c0,3.9,0.8,7.8,2.3,11.6c1.6,3.8,3.8,7.2,6.8,10.2c2.7,2.7,5.7,4.8,9.1,6.3c3.4,1.5,6.8,2.4,10.4,2.6c3.6,0.3,7.1-0.1,10.6-1
		c3.5-0.9,6.8-2.5,9.8-4.7v-5.7h-22.8V70.3H432.4z"/>
	<path class="st3" d="M513.5,46.4H471v17.2h33.6v26.2H471V134h-26.2V20.2h68.7V46.4z"/>
	<path class="st3" d="M589.5,134l-4.5-13.8h-35.8l-4.6,13.8h-27.7l38.8-113.8h24.8L617,134H589.5z M558.1,94h18.4l-9-27.6L558.1,94z
		"/>
	<path class="st3" d="M690,19.8V46h-21.9v88H642V46h-21.7V19.8H690z"/>
	<path class="st3" d="M757.6,20.2h26.2V134h-26.2V91.1h-32.9V134h-26.2V20.2h26.2v44.6h32.9V20.2z"/>
	<path class="st3" d="M868.3,46.4h-46.8v17.2h38v26.2h-38v18h46.8V134h-73V20.4l73-0.2V46.4z"/>
	<path class="st3" d="M916.2,104.5c-1.3,0.2-2.7,0.4-4,0.5c-1.3,0.1-2.7,0.2-4.2,0.3V134h-26.2V20.7H908c6.5,0.1,12.6,1.3,18.3,3.6
		c5.7,2.3,10.7,5.3,15,9.1c4.3,3.8,7.6,8.3,10.1,13.3c2.4,5.1,3.6,10.5,3.6,16.3c0,6.1-1.3,11.7-3.9,17c-2.6,5.2-6.2,9.7-10.9,13.5
		l25.1,40.6h-30.8L916.2,104.5z M908,79c2.8-0.1,5.4-0.6,8-1.5c2.5-0.9,4.8-2,6.7-3.5c1.9-1.4,3.4-3.1,4.5-5c1.1-1.9,1.6-4,1.6-6.1
		c0-2.2-0.5-4.2-1.6-6c-1.1-1.9-2.6-3.5-4.5-5c-1.9-1.4-4.1-2.6-6.7-3.5c-2.5-0.9-5.2-1.4-8-1.5V79z"/>
</g>
<g>
	<path class="st2" d="M445.2,175v-28.4h10.1c2.3,0,4.3,0.4,6,1.1c1.7,0.7,3.2,1.8,4.3,3c1.2,1.3,2,2.8,2.6,4.5
		c0.6,1.7,0.9,3.6,0.9,5.5c0,2.2-0.3,4.1-1,5.9c-0.7,1.7-1.6,3.2-2.8,4.5c-1.2,1.2-2.7,2.2-4.4,2.9c-1.7,0.7-3.6,1-5.7,1H445.2z
		 M464.6,160.8c0-1.5-0.2-2.9-0.6-4.1c-0.4-1.3-1-2.3-1.8-3.2c-0.8-0.9-1.8-1.6-2.9-2.1c-1.1-0.5-2.5-0.8-3.9-0.8h-5.6V171h5.6
		c1.5,0,2.8-0.3,4-0.8c1.2-0.5,2.1-1.2,2.9-2.2s1.4-2,1.8-3.3C464.4,163.6,464.6,162.2,464.6,160.8z"/>
	<path class="st2" d="M482.7,175.4c-1.7,0-3.1-0.3-4.5-0.9c-1.3-0.6-2.4-1.4-3.4-2.4c-0.9-1-1.7-2.1-2.2-3.5
		c-0.5-1.3-0.8-2.7-0.8-4.1c0-1.4,0.3-2.8,0.8-4.1c0.5-1.3,1.2-2.5,2.2-3.5c0.9-1,2.1-1.8,3.4-2.4c1.3-0.6,2.8-0.9,4.4-0.9
		c1.6,0,3.1,0.3,4.4,0.9c1.3,0.6,2.5,1.4,3.4,2.4c0.9,1,1.7,2.1,2.2,3.5c0.5,1.3,0.8,2.7,0.8,4.1c0,1.4-0.3,2.8-0.8,4.1
		c-0.5,1.3-1.2,2.5-2.2,3.5c-0.9,1-2.1,1.8-3.4,2.4C485.8,175.1,484.3,175.4,482.7,175.4z M476.4,164.6c0,1,0.2,1.9,0.5,2.8
		c0.3,0.9,0.8,1.6,1.3,2.2c0.6,0.6,1.2,1.1,2,1.5c0.8,0.4,1.6,0.5,2.5,0.5s1.7-0.2,2.5-0.5c0.8-0.4,1.4-0.9,2-1.5
		c0.6-0.6,1-1.4,1.3-2.2c0.3-0.9,0.5-1.8,0.5-2.8c0-1-0.2-1.9-0.5-2.8c-0.3-0.9-0.8-1.6-1.3-2.3c-0.6-0.6-1.2-1.1-2-1.5
		c-0.8-0.4-1.6-0.5-2.5-0.5c-0.9,0-1.7,0.2-2.4,0.6c-0.8,0.4-1.4,0.9-2,1.5c-0.6,0.6-1,1.4-1.3,2.3
		C476.6,162.7,476.4,163.6,476.4,164.6z"/>
	<path class="st2" d="M505.6,175.2c-1.4,0-2.7-0.3-3.9-0.9c-1.2-0.6-2.2-1.4-3-2.3c-0.8-1-1.5-2.1-2-3.4c-0.5-1.3-0.7-2.6-0.7-4
		c0-1.5,0.2-2.9,0.7-4.2c0.5-1.3,1.1-2.5,2-3.4s1.9-1.7,3.1-2.3s2.5-0.9,3.9-0.9c1.7,0,3.2,0.4,4.4,1.2s2.3,1.8,3.1,3.1v-4h3.9v20.3
		c0,1.5-0.3,2.9-0.8,4c-0.6,1.2-1.3,2.2-2.3,3s-2.2,1.4-3.5,1.9c-1.4,0.4-2.8,0.6-4.4,0.6c-2.3,0-4.2-0.4-5.8-1.2
		c-1.5-0.8-2.8-1.9-3.9-3.3l2.5-2.3c0.8,1.1,1.8,2,3.1,2.6s2.6,0.9,4.1,0.9c0.9,0,1.8-0.1,2.6-0.4c0.8-0.2,1.5-0.6,2.1-1.1
		c0.6-0.5,1.1-1.1,1.5-1.9s0.5-1.7,0.5-2.8v-3.2c-0.7,1.3-1.8,2.3-3.1,3S507.1,175.2,505.6,175.2z M507.1,171.6
		c0.7,0,1.3-0.1,1.9-0.3c0.6-0.2,1.2-0.5,1.7-0.9c0.5-0.4,1-0.8,1.3-1.3c0.4-0.5,0.6-1,0.8-1.6V162c-0.3-0.7-0.6-1.3-1-1.8
		c-0.4-0.5-0.9-1-1.5-1.4c-0.5-0.4-1.1-0.7-1.7-0.9s-1.2-0.3-1.8-0.3c-1,0-1.8,0.2-2.6,0.6c-0.8,0.4-1.4,1-1.9,1.6
		c-0.5,0.7-0.9,1.4-1.2,2.3c-0.3,0.9-0.4,1.7-0.4,2.6c0,1,0.2,1.9,0.5,2.7c0.3,0.8,0.8,1.6,1.4,2.2c0.6,0.6,1.3,1.1,2.1,1.5
		C505.3,171.5,506.1,171.6,507.1,171.6z"/>
	<path class="st2" d="M541.7,146.7h4.2l3.5,9.6l3.5-9.6h4.2l-4.8,12.6l4.2,10.4l8.8-23.2h4.9L558.6,175h-3.8l-5.3-12.7l-5.3,12.7
		h-3.8l-11.7-28.4h4.9l8.9,23.2l4.2-10.4L541.7,146.7z"/>
	<path class="st2" d="M576.6,175.4c-1,0-2-0.2-2.8-0.5c-0.9-0.3-1.6-0.8-2.2-1.4c-0.6-0.6-1.1-1.3-1.5-2.1c-0.4-0.8-0.5-1.7-0.5-2.6
		c0-1,0.2-1.9,0.6-2.7s1-1.5,1.8-2.1c0.8-0.6,1.7-1,2.8-1.4c1.1-0.3,2.3-0.5,3.6-0.5c1,0,2,0.1,2.9,0.3c1,0.2,1.8,0.4,2.6,0.7v-1.4
		c0-1.5-0.4-2.8-1.3-3.6c-0.9-0.9-2.1-1.3-3.8-1.3c-1.1,0-2.2,0.2-3.3,0.6c-1.1,0.4-2.2,1-3.3,1.8l-1.4-2.8c2.7-1.8,5.5-2.7,8.4-2.7
		c2.9,0,5.1,0.7,6.7,2.2c1.6,1.5,2.4,3.6,2.4,6.3v7.6c0,0.9,0.4,1.4,1.2,1.4v3.8c-0.4,0.1-0.8,0.1-1.1,0.2c-0.3,0-0.6,0-0.9,0
		c-0.9,0-1.5-0.2-2-0.6c-0.5-0.4-0.8-1-0.9-1.6l-0.1-1.3c-0.9,1.2-2.1,2.2-3.5,2.8C579.7,175.1,578.2,175.4,576.6,175.4z
		 M577.8,172.2c1.1,0,2.1-0.2,3-0.6c0.9-0.4,1.7-0.9,2.2-1.6c0.6-0.5,0.8-1,0.8-1.5v-2.8c-0.7-0.3-1.5-0.5-2.4-0.7
		c-0.8-0.2-1.7-0.2-2.5-0.2c-1.6,0-2.9,0.3-3.9,1c-1,0.7-1.5,1.6-1.5,2.7c0,1,0.4,1.9,1.2,2.6C575.7,171.8,576.6,172.2,577.8,172.2z
		"/>
	<path class="st2" d="M593.7,145.8h4.4V169c0,0.8,0.2,1.4,0.6,1.8c0.4,0.4,1,0.7,1.7,0.7c0.3,0,0.6-0.1,1-0.2s0.8-0.2,1.1-0.4
		l0.6,3.4c-0.6,0.3-1.4,0.5-2.3,0.7c-0.9,0.2-1.7,0.3-2.4,0.3c-1.5,0-2.7-0.4-3.5-1.2c-0.8-0.8-1.3-2-1.3-3.5V145.8z"/>
	<path class="st2" d="M620.2,175l-6.7-9.6l-3.5,3.3v6.4h-4.4v-29.2h4.4v18.5l9.6-10.2h4.8l-8.1,8.8l8.6,12.1H620.2z"/>
	<path class="st2" d="M627.6,150.6v-4.8h4.4v4.8H627.6z M627.6,175v-20.9h4.4V175H627.6z"/>
	<path class="st2" d="M656,175h-4.4v-11.7c0-2-0.3-3.4-0.9-4.3c-0.6-0.9-1.6-1.3-2.8-1.3c-0.6,0-1.3,0.1-1.9,0.4
		c-0.6,0.2-1.2,0.6-1.8,1c-0.6,0.4-1.1,1-1.5,1.6c-0.4,0.6-0.8,1.3-1,2V175h-4.4v-20.9h4v4.2c0.8-1.4,2-2.5,3.5-3.3
		c1.5-0.8,3.2-1.2,5-1.2c1.3,0,2.3,0.2,3.1,0.7s1.4,1.1,1.9,1.9c0.5,0.8,0.8,1.7,1,2.7s0.3,2.1,0.3,3.3V175z"/>
	<path class="st2" d="M669.4,175.2c-1.4,0-2.7-0.3-3.9-0.9c-1.2-0.6-2.2-1.4-3-2.3c-0.8-1-1.5-2.1-2-3.4c-0.5-1.3-0.7-2.6-0.7-4
		c0-1.5,0.2-2.9,0.7-4.2c0.5-1.3,1.1-2.5,2-3.4s1.9-1.7,3.1-2.3s2.5-0.9,3.9-0.9c1.7,0,3.2,0.4,4.4,1.2s2.3,1.8,3.1,3.1v-4h3.9v20.3
		c0,1.5-0.3,2.9-0.8,4c-0.6,1.2-1.3,2.2-2.3,3s-2.2,1.4-3.5,1.9c-1.4,0.4-2.8,0.6-4.4,0.6c-2.3,0-4.2-0.4-5.8-1.2
		c-1.5-0.8-2.8-1.9-3.9-3.3l2.5-2.3c0.8,1.1,1.8,2,3.1,2.6s2.6,0.9,4.1,0.9c0.9,0,1.8-0.1,2.6-0.4c0.8-0.2,1.5-0.6,2.1-1.1
		c0.6-0.5,1.1-1.1,1.5-1.9s0.5-1.7,0.5-2.8v-3.2c-0.7,1.3-1.8,2.3-3.1,3S670.9,175.2,669.4,175.2z M670.9,171.6
		c0.7,0,1.3-0.1,1.9-0.3c0.6-0.2,1.2-0.5,1.7-0.9c0.5-0.4,1-0.8,1.3-1.3c0.4-0.5,0.6-1,0.8-1.6V162c-0.3-0.7-0.6-1.3-1-1.8
		c-0.4-0.5-0.9-1-1.5-1.4c-0.5-0.4-1.1-0.7-1.7-0.9s-1.2-0.3-1.8-0.3c-1,0-1.8,0.2-2.6,0.6c-0.8,0.4-1.4,1-1.9,1.6
		c-0.5,0.7-0.9,1.4-1.2,2.3c-0.3,0.9-0.4,1.7-0.4,2.6c0,1,0.2,1.9,0.5,2.7c0.3,0.8,0.8,1.6,1.4,2.2c0.6,0.6,1.3,1.1,2.1,1.5
		C669.1,171.5,669.9,171.6,670.9,171.6z"/>
	<path class="st2" d="M715.5,175l-2.6-2.7c-1.2,1-2.5,1.8-3.9,2.3s-2.9,0.8-4.4,0.8c-1.4,0-2.7-0.2-3.8-0.6c-1.1-0.4-2.1-1-3-1.7
		c-0.8-0.7-1.5-1.6-1.9-2.6c-0.5-1-0.7-2.1-0.7-3.2c0-0.9,0.1-1.7,0.4-2.5c0.3-0.8,0.7-1.5,1.1-2.2c0.5-0.7,1-1.3,1.7-1.8
		c0.6-0.6,1.3-1.1,2-1.6c-0.6-0.7-1.1-1.3-1.5-1.8c-0.4-0.6-0.7-1.1-1-1.6c-0.3-0.5-0.4-1-0.6-1.4c-0.1-0.5-0.2-1-0.2-1.5
		c0-1,0.2-1.8,0.6-2.7c0.4-0.8,0.9-1.5,1.6-2.1c0.7-0.6,1.5-1,2.4-1.4c0.9-0.3,1.9-0.5,3-0.5c1,0,1.9,0.1,2.8,0.4
		c0.9,0.3,1.7,0.7,2.3,1.2c0.7,0.5,1.2,1.1,1.6,1.9c0.4,0.8,0.6,1.6,0.6,2.6c0,0.8-0.1,1.5-0.4,2.2c-0.3,0.7-0.7,1.3-1.1,1.9
		c-0.5,0.6-1,1.2-1.7,1.7c-0.7,0.5-1.4,1.1-2.1,1.6l6.4,6.7c0.5-0.9,0.8-1.9,1.1-3c0.3-1.1,0.4-2.2,0.4-3.5h3.6c0,1.8-0.3,3.5-0.7,5
		s-1,2.9-1.8,4.1l5.7,5.9H715.5z M705.1,171.9c1,0,1.9-0.2,2.9-0.6s1.8-0.9,2.5-1.6l-7.4-7.8c-1.1,0.8-2,1.6-2.6,2.4
		c-0.7,0.9-1,1.8-1,2.9c0,0.7,0.1,1.3,0.4,1.9c0.3,0.6,0.7,1.1,1.2,1.5c0.5,0.4,1.1,0.7,1.8,0.9
		C703.6,171.8,704.3,171.9,705.1,171.9z M701.3,152.7c0,0.3,0,0.5,0.1,0.8c0.1,0.3,0.2,0.5,0.4,0.9c0.2,0.3,0.5,0.7,0.8,1.1
		c0.4,0.4,0.8,0.9,1.3,1.5c1.2-0.8,2.2-1.5,2.9-2.2c0.7-0.7,1.1-1.5,1.1-2.3s-0.3-1.5-0.9-2.1c-0.6-0.5-1.4-0.8-2.3-0.8
		c-1,0-1.8,0.3-2.5,0.9C701.6,151.1,701.3,151.8,701.3,152.7z"/>
	<path class="st2" d="M734.5,175v-28.4h11.9c1.3,0,2.5,0.3,3.5,0.8s2,1.2,2.8,2.1c0.8,0.9,1.4,1.9,1.8,3c0.4,1.1,0.7,2.2,0.7,3.4
		c0,1.2-0.2,2.4-0.6,3.5c-0.4,1.1-1,2.1-1.7,3c-0.7,0.9-1.6,1.6-2.7,2.1c-1.1,0.5-2.2,0.8-3.5,0.8H739v9.9H734.5z M739,161.2h7.4
		c0.6,0,1.2-0.1,1.7-0.4c0.5-0.3,1-0.6,1.3-1.1c0.4-0.5,0.7-1,0.9-1.7c0.2-0.6,0.3-1.3,0.3-2.1c0-0.8-0.1-1.5-0.4-2.2
		c-0.2-0.6-0.6-1.2-1-1.7c-0.4-0.5-0.9-0.8-1.5-1.1c-0.5-0.3-1.1-0.4-1.7-0.4H739V161.2z"/>
	<path class="st2" d="M768,175.4c-1.6,0-3.1-0.3-4.4-0.9s-2.5-1.4-3.4-2.3s-1.7-2.1-2.2-3.4c-0.5-1.3-0.8-2.7-0.8-4.2
		c0-1.5,0.3-2.9,0.8-4.2c0.5-1.3,1.3-2.5,2.2-3.5s2.1-1.8,3.4-2.4s2.8-0.9,4.5-0.9c1.6,0,3.1,0.3,4.4,0.9c1.3,0.6,2.4,1.4,3.4,2.3
		s1.6,2.1,2.1,3.4c0.5,1.3,0.7,2.6,0.7,4.1c0,0.3,0,0.6,0,0.9s-0.1,0.5-0.1,0.7h-16.8c0.1,0.9,0.3,1.8,0.7,2.5
		c0.4,0.7,0.8,1.4,1.4,1.9c0.6,0.5,1.2,1,2,1.3c0.7,0.3,1.5,0.4,2.3,0.4c0.6,0,1.2-0.1,1.7-0.2s1.1-0.4,1.6-0.6
		c0.5-0.3,0.9-0.6,1.3-1c0.4-0.4,0.7-0.8,0.9-1.3l3.8,1.1c-0.7,1.6-1.9,2.9-3.6,3.9C772.1,174.9,770.2,175.4,768,175.4z M774.3,163
		c-0.1-0.9-0.3-1.7-0.7-2.4c-0.4-0.7-0.8-1.4-1.4-1.9c-0.6-0.5-1.2-0.9-2-1.2c-0.7-0.3-1.5-0.4-2.4-0.4c-0.8,0-1.6,0.1-2.3,0.4
		c-0.7,0.3-1.4,0.7-1.9,1.2c-0.6,0.5-1,1.2-1.4,1.9c-0.3,0.7-0.6,1.6-0.6,2.4H774.3z"/>
	<path class="st2" d="M793.8,173.9c-0.6,0.3-1.3,0.6-2.3,0.9c-1,0.3-2,0.5-3.2,0.5c-0.7,0-1.3-0.1-2-0.3s-1.2-0.5-1.6-0.8
		c-0.5-0.4-0.8-0.9-1.1-1.5c-0.3-0.6-0.4-1.3-0.4-2.2v-13.1h-2.8v-3.4h2.8v-6.9h4.4v6.9h4.6v3.4h-4.6v11.7c0.1,0.7,0.3,1.3,0.7,1.6
		c0.4,0.3,0.9,0.5,1.5,0.5c0.6,0,1.2-0.1,1.8-0.3c0.6-0.2,1-0.4,1.2-0.5L793.8,173.9z"/>
	<path class="st2" d="M824,153.3c-0.3-0.3-0.7-0.6-1.2-0.9c-0.5-0.3-1.1-0.6-1.8-0.9c-0.7-0.3-1.4-0.5-2.2-0.7
		c-0.8-0.2-1.6-0.3-2.5-0.3c-1.9,0-3.3,0.3-4.2,1s-1.3,1.7-1.3,2.9c0,0.7,0.1,1.3,0.4,1.7c0.3,0.4,0.7,0.8,1.3,1.2
		c0.6,0.3,1.3,0.6,2.2,0.9c0.9,0.3,1.9,0.5,3.1,0.8c1.4,0.3,2.7,0.7,3.9,1.2s2.1,0.9,2.9,1.6c0.8,0.6,1.4,1.4,1.9,2.3s0.7,2,0.7,3.3
		c0,1.4-0.3,2.7-0.8,3.7s-1.3,1.9-2.2,2.5c-0.9,0.7-2,1.1-3.3,1.4c-1.3,0.3-2.6,0.5-4,0.5c-2.2,0-4.2-0.3-6.3-1
		c-2-0.7-3.8-1.6-5.5-2.9l2-3.8c0.3,0.3,0.8,0.7,1.5,1.2c0.7,0.4,1.4,0.8,2.3,1.2c0.9,0.4,1.8,0.7,2.8,0.9c1,0.3,2.1,0.4,3.2,0.4
		c1.8,0,3.1-0.3,4.1-0.9s1.4-1.5,1.4-2.7c0-0.7-0.2-1.3-0.5-1.8c-0.4-0.5-0.9-0.9-1.5-1.3c-0.7-0.4-1.5-0.7-2.4-1
		c-1-0.3-2.1-0.6-3.3-0.9c-1.4-0.4-2.6-0.8-3.7-1.2c-1.1-0.4-1.9-0.9-2.6-1.5c-0.7-0.6-1.2-1.3-1.6-2.1c-0.4-0.8-0.5-1.7-0.5-2.9
		c0-1.4,0.3-2.6,0.8-3.7s1.3-2,2.2-2.7s2-1.3,3.3-1.7c1.3-0.4,2.6-0.6,4.1-0.6c1.9,0,3.7,0.3,5.3,0.9s3.1,1.4,4.3,2.3L824,153.3z"/>
	<path class="st2" d="M840.6,175.4c-1.6,0-3.1-0.3-4.4-0.9s-2.5-1.4-3.4-2.3s-1.7-2.1-2.2-3.4c-0.5-1.3-0.8-2.7-0.8-4.2
		c0-1.5,0.3-2.9,0.8-4.2c0.5-1.3,1.3-2.5,2.2-3.5s2.1-1.8,3.4-2.4s2.8-0.9,4.5-0.9c1.6,0,3.1,0.3,4.4,0.9c1.3,0.6,2.4,1.4,3.4,2.3
		s1.6,2.1,2.1,3.4c0.5,1.3,0.7,2.6,0.7,4.1c0,0.3,0,0.6,0,0.9s-0.1,0.5-0.1,0.7h-16.8c0.1,0.9,0.3,1.8,0.7,2.5
		c0.4,0.7,0.8,1.4,1.4,1.9c0.6,0.5,1.2,1,2,1.3c0.7,0.3,1.5,0.4,2.3,0.4c0.6,0,1.2-0.1,1.7-0.2s1.1-0.4,1.6-0.6
		c0.5-0.3,0.9-0.6,1.3-1c0.4-0.4,0.7-0.8,0.9-1.3l3.8,1.1c-0.7,1.6-1.9,2.9-3.6,3.9C844.7,174.9,842.8,175.4,840.6,175.4z M847,163
		c-0.1-0.9-0.3-1.7-0.7-2.4c-0.4-0.7-0.8-1.4-1.4-1.9c-0.6-0.5-1.2-0.9-2-1.2c-0.7-0.3-1.5-0.4-2.4-0.4c-0.8,0-1.6,0.1-2.3,0.4
		c-0.7,0.3-1.4,0.7-1.9,1.2c-0.6,0.5-1,1.2-1.4,1.9c-0.3,0.7-0.6,1.6-0.6,2.4H847z"/>
	<path class="st2" d="M866.7,157.9c-1.7,0.1-3.2,0.4-4.5,1.2c-1.3,0.7-2.3,1.8-2.8,3.1V175h-4.4v-20.9h4.1v4.7
		c0.7-1.4,1.7-2.6,2.8-3.5c1.2-0.9,2.4-1.3,3.7-1.4c0.3,0,0.5,0,0.7,0c0.2,0,0.3,0,0.5,0V157.9z"/>
	<path class="st2" d="M875.8,175l-8-20.9h4.5l6,17.2l6-17.2h4.2l-8,20.9H875.8z"/>
	<path class="st2" d="M891.6,150.6v-4.8h4.4v4.8H891.6z M891.6,175v-20.9h4.4V175H891.6z"/>
	<path class="st2" d="M899.9,164.5c0-1.5,0.3-2.9,0.8-4.2c0.5-1.3,1.2-2.5,2.2-3.4c0.9-1,2.1-1.8,3.4-2.3s2.8-0.9,4.5-0.9
		c2.2,0,4,0.5,5.6,1.4c1.6,0.9,2.7,2.2,3.5,3.8l-4.3,1.4c-0.5-0.9-1.2-1.6-2-2.1c-0.9-0.5-1.8-0.7-2.8-0.7c-0.9,0-1.7,0.2-2.5,0.5
		s-1.4,0.8-2,1.5c-0.6,0.6-1,1.4-1.3,2.2c-0.3,0.9-0.5,1.8-0.5,2.8c0,1,0.2,2,0.5,2.8c0.3,0.9,0.8,1.6,1.4,2.3
		c0.6,0.6,1.2,1.1,2,1.5c0.8,0.4,1.6,0.5,2.4,0.5c0.5,0,1.1-0.1,1.6-0.2s1-0.4,1.5-0.6c0.4-0.3,0.8-0.6,1.2-0.9
		c0.3-0.3,0.6-0.7,0.7-1.1l4.3,1.3c-0.7,1.6-1.9,2.9-3.5,3.9c-1.6,1-3.5,1.5-5.8,1.5c-1.6,0-3.1-0.3-4.4-0.9
		c-1.3-0.6-2.5-1.4-3.4-2.4s-1.7-2.2-2.2-3.5C900.2,167.4,899.9,166,899.9,164.5z"/>
	<path class="st2" d="M932.9,175.4c-1.6,0-3.1-0.3-4.4-0.9s-2.5-1.4-3.4-2.3s-1.7-2.1-2.2-3.4c-0.5-1.3-0.8-2.7-0.8-4.2
		c0-1.5,0.3-2.9,0.8-4.2c0.5-1.3,1.3-2.5,2.2-3.5s2.1-1.8,3.4-2.4s2.8-0.9,4.5-0.9c1.6,0,3.1,0.3,4.4,0.9c1.3,0.6,2.4,1.4,3.4,2.3
		s1.6,2.1,2.1,3.4c0.5,1.3,0.7,2.6,0.7,4.1c0,0.3,0,0.6,0,0.9s-0.1,0.5-0.1,0.7h-16.8c0.1,0.9,0.3,1.8,0.7,2.5
		c0.4,0.7,0.8,1.4,1.4,1.9c0.6,0.5,1.2,1,2,1.3c0.7,0.3,1.5,0.4,2.3,0.4c0.6,0,1.2-0.1,1.7-0.2s1.1-0.4,1.6-0.6
		c0.5-0.3,0.9-0.6,1.3-1c0.4-0.4,0.7-0.8,0.9-1.3l3.8,1.1c-0.7,1.6-1.9,2.9-3.6,3.9C937.1,174.9,935.1,175.4,932.9,175.4z
		 M939.3,163c-0.1-0.9-0.3-1.7-0.7-2.4c-0.4-0.7-0.8-1.4-1.4-1.9c-0.6-0.5-1.2-0.9-2-1.2c-0.7-0.3-1.5-0.4-2.4-0.4
		c-0.8,0-1.6,0.1-2.3,0.4c-0.7,0.3-1.4,0.7-1.9,1.2c-0.6,0.5-1,1.2-1.4,1.9c-0.3,0.7-0.6,1.6-0.6,2.4H939.3z"/>
	<path class="st2" d="M954.8,175.4c-1.7,0-3.4-0.3-5-0.8s-3.1-1.3-4.3-2.3l1.8-2.8c1.3,0.9,2.5,1.6,3.7,2.1c1.2,0.5,2.5,0.7,3.8,0.7
		c1.3,0,2.3-0.3,3.1-0.8s1.1-1.2,1.1-2.2c0-0.9-0.4-1.5-1.3-1.9c-0.9-0.4-2.2-0.8-4-1.3c-1.3-0.3-2.4-0.7-3.4-1s-1.7-0.7-2.3-1.1
		c-0.6-0.4-1-0.9-1.3-1.5c-0.3-0.6-0.4-1.2-0.4-2c0-1.1,0.2-2,0.6-2.8c0.4-0.8,1-1.5,1.7-2.1c0.7-0.6,1.6-1,2.6-1.3
		c1-0.3,2.1-0.4,3.2-0.4c1.6,0,3,0.2,4.4,0.7c1.4,0.5,2.6,1.2,3.6,2.1l-1.9,2.6c-1.9-1.5-4-2.3-6.2-2.3c-1.1,0-2.1,0.2-2.8,0.7
		c-0.8,0.5-1.1,1.2-1.1,2.2c0,0.4,0.1,0.8,0.2,1.1c0.2,0.3,0.4,0.5,0.8,0.8c0.4,0.2,0.8,0.4,1.4,0.6c0.6,0.2,1.3,0.4,2.1,0.6
		c1.4,0.3,2.6,0.7,3.7,1c1,0.3,1.9,0.8,2.5,1.2c0.7,0.5,1.2,1,1.5,1.6c0.3,0.6,0.5,1.4,0.5,2.3c0,2-0.8,3.6-2.3,4.7
		S957.4,175.4,954.8,175.4z"/>
</g>
</svg>
