<svg xmlns="http://www.w3.org/2000/svg" viewBox="0 0 503 326"><path d="M238 67.5c33.4 0 37.3.1 50.5.7 33.9 1.5 49.7 17.6 51.2 51.2.6 13.2.7 17.1.7 50.5s-.1 37.3-.7 50.5c-1.6 33.6-17.3 49.7-51.2 51.2-13.2.6-17.1.7-50.5.7s-37.3-.1-50.5-.7c-34-1.6-49.7-17.7-51.2-51.3-.6-13.2-.7-17.1-.7-50.5s.1-37.3.7-50.5c1.6-33.6 17.3-49.7 51.2-51.2 13.2-.4 17.1-.6 50.5-.6zm0-22.5c-33.9 0-38.2.1-51.5.8-45.4 2.1-70.6 27.3-72.7 72.7-.6 13.3-.8 17.6-.8 51.5s.1 38.2.8 51.5c2.1 45.4 27.3 70.6 72.7 72.7 13.3.6 17.6.8 51.5.8s38.2-.1 51.5-.8c45.4-2.1 70.6-27.3 72.7-72.7.6-13.3.8-17.6.8-51.5s-.1-38.2-.8-51.5c-2-45.4-27.3-70.6-72.7-72.7-13.3-.7-17.6-.8-51.5-.8zm0 60.8c-35.4 0-64.2 28.7-64.2 64.2s28.7 64.2 64.2 64.2 64.2-28.7 64.2-64.2c0-35.4-28.8-64.2-64.2-64.2zm0 105.9c-23 0-41.7-18.6-41.7-41.7 0-23 18.7-41.7 41.7-41.7s41.7 18.7 41.7 41.7c0 23-18.7 41.7-41.7 41.7zm66.7-123.4c-8.3 0-15 6.7-15 15s6.7 15 15 15 15-6.7 15-15-6.7-15-15-15z" fill="#fff"/></svg>