<svg version="1.1" id="Layer_1" xmlns="http://www.w3.org/2000/svg" x="0" y="0" viewBox="0 0 968 185" xml:space="preserve"><style>.st1{enable-background:new}.st2{fill:#333}.st3{fill:#b3754b}</style><path fill="#2c2c2c" d="M2 5h965v10H2z"/><g class="st1"><path class="st2" d="M37.7 20v13.5H26.4V79H12.9V33.6H1.7V20h36zm34.9.3h13.5V79H72.6V56.8h-17V79H42.1V20.3h13.5v23h17v-23zm57.1 13.5h-24.2v8.9h19.6v13.5h-19.6v9.3h24.2V79H92V20.4l37.7-.1v13.5z"/></g><g class="st1"><path class="st3" d="M165.4 19.8c7.5.4 14.6 2.2 21.3 5.4 6.7 3.2 12.5 7.4 17.4 12.6 4.9 5.2 8.8 11.2 11.6 18 2.8 6.8 4.3 14.1 4.3 21.9 0 7.6-1.4 14.8-4.2 21.5s-6.6 12.5-11.5 17.6c-4.9 5.1-10.7 9.1-17.3 12.2-6.6 3-13.8 4.8-21.5 5.2h-26.2V19.6h26.2v.2zm0 87.9c4-.4 7.8-1.5 11.2-3.2 3.5-1.7 6.5-3.9 9-6.5s4.5-5.7 6-9.2c1.4-3.5 2.2-7.2 2.2-11.2 0-4-.7-7.9-2.2-11.5-1.4-3.7-3.5-6.9-6-9.8-2.6-2.8-5.6-5.2-9-7-3.4-1.8-7.1-2.9-11.2-3.3v61.7z"/><path class="st3" d="M275 20.1c7.8 0 15.2 1.5 22.1 4.5 6.9 3 13 7.1 18.1 12.2s9.2 11.1 12.2 18.1c3 6.9 4.5 14.3 4.5 22.2 0 7.9-1.5 15.2-4.5 22.2-3 6.9-7.1 12.9-12.2 18.1s-11.2 9.2-18.1 12.2c-6.9 3-14.3 4.5-22.1 4.5-7.8 0-15.2-1.5-22.1-4.5-6.9-3-12.9-7.1-18-12.2s-9.2-11.1-12.2-18.1c-3-6.9-4.5-14.3-4.5-22.2 0-7.9 1.5-15.2 4.5-22.2 3-6.9 7-12.9 12.2-18.1 5.1-5.1 11.1-9.2 18-12.2s14.3-4.5 22.1-4.5zm.1 87.6c4.2 0 8.2-.8 11.9-2.4 3.7-1.6 7-3.8 9.8-6.6s5-6 6.6-9.8c1.6-3.7 2.4-7.7 2.4-11.9s-.8-8.2-2.4-11.9c-1.6-3.7-3.8-7-6.6-9.8s-6-5-9.8-6.6c-3.7-1.6-7.7-2.4-11.9-2.4s-8.2.8-11.9 2.4c-3.7 1.6-7 3.8-9.8 6.6s-5 6-6.6 9.8c-1.6 3.7-2.4 7.7-2.4 11.9s.8 8.2 2.4 11.9c1.6 3.7 3.8 7 6.6 9.8s6 5 9.8 6.6c3.7 1.6 7.7 2.4 11.9 2.4z"/><path class="st3" d="M432.4 70.3V134H406v-2.8c-2.9 1-5.9 1.8-8.9 2.2-3 .5-6.1.7-9.1.7-7.3 0-14.5-1.4-21.5-4.2-7-2.8-13.3-7-18.9-12.6s-9.7-11.9-12.5-18.8c-2.7-7-4.1-14.1-4.1-21.5 0-7.3 1.4-14.5 4.1-21.5 2.7-7 6.9-13.3 12.5-18.9s11.9-9.8 18.9-12.6c7-2.8 14.2-4.2 21.5-4.2 7.3 0 14.5 1.4 21.5 4.2 7 2.8 13.3 7 18.9 12.6L410 55.3c-3-3-6.4-5.2-10.2-6.7-3.8-1.5-7.7-2.2-11.6-2.2-3.9 0-7.8.8-11.6 2.2-3.8 1.5-7.2 3.7-10.2 6.7-3 3-5.3 6.4-6.8 10.2-1.5 3.8-2.3 7.7-2.3 11.6 0 3.9.8 7.8 2.3 11.6 1.6 3.8 3.8 7.2 6.8 10.2 2.7 2.7 5.7 4.8 9.1 6.3 3.4 1.5 6.8 2.4 10.4 2.6 3.6.3 7.1-.1 10.6-1s6.8-2.5 9.8-4.7v-5.7h-22.8V70.3h48.9zm81.1-23.9H471v17.2h33.6v26.2H471V134h-26.2V20.2h68.7v26.2zm76 87.6l-4.5-13.8h-35.8l-4.6 13.8h-27.7l38.8-113.8h24.8L617 134h-27.5zm-31.4-40h18.4l-9-27.6-9.4 27.6zM690 19.8V46h-21.9v88H642V46h-21.7V19.8H690zm67.6.4h26.2V134h-26.2V91.1h-32.9V134h-26.2V20.2h26.2v44.6h32.9V20.2zm110.7 26.2h-46.8v17.2h38v26.2h-38v18h46.8V134h-73V20.4l73-.2v26.2zm47.9 58.1c-1.3.2-2.7.4-4 .5-1.3.1-2.7.2-4.2.3V134h-26.2V20.7H908c6.5.1 12.6 1.3 18.3 3.6 5.7 2.3 10.7 5.3 15 9.1 4.3 3.8 7.6 8.3 10.1 13.3 2.4 5.1 3.6 10.5 3.6 16.3 0 6.1-1.3 11.7-3.9 17-2.6 5.2-6.2 9.7-10.9 13.5l25.1 40.6h-30.8l-18.3-29.6zM908 79c2.8-.1 5.4-.6 8-1.5 2.5-.9 4.8-2 6.7-3.5 1.9-1.4 3.4-3.1 4.5-5s1.6-4 1.6-6.1c0-2.2-.5-4.2-1.6-6-1.1-1.9-2.6-3.5-4.5-5-1.9-1.4-4.1-2.6-6.7-3.5-2.5-.9-5.2-1.4-8-1.5V79z"/></g><path class="st2" d="M445.2 175v-28.4h10.1c2.3 0 4.3.4 6 1.1 1.7.7 3.2 1.8 4.3 3 1.2 1.3 2 2.8 2.6 4.5.6 1.7.9 3.6.9 5.5 0 2.2-.3 4.1-1 5.9-.7 1.7-1.6 3.2-2.8 4.5-1.2 1.2-2.7 2.2-4.4 2.9-1.7.7-3.6 1-5.7 1h-10zm19.4-14.2c0-1.5-.2-2.9-.6-4.1-.4-1.3-1-2.3-1.8-3.2-.8-.9-1.8-1.6-2.9-2.1-1.1-.5-2.5-.8-3.9-.8h-5.6V171h5.6c1.5 0 2.8-.3 4-.8 1.2-.5 2.1-1.2 2.9-2.2s1.4-2 1.8-3.3c.3-1.1.5-2.5.5-3.9zm18.1 14.6c-1.7 0-3.1-.3-4.5-.9-1.3-.6-2.4-1.4-3.4-2.4-.9-1-1.7-2.1-2.2-3.5-.5-1.3-.8-2.7-.8-4.1 0-1.4.3-2.8.8-4.1.5-1.3 1.2-2.5 2.2-3.5.9-1 2.1-1.8 3.4-2.4 1.3-.6 2.8-.9 4.4-.9 1.6 0 3.1.3 4.4.9 1.3.6 2.5 1.4 3.4 2.4.9 1 1.7 2.1 2.2 3.5.5 1.3.8 2.7.8 4.1 0 1.4-.3 2.8-.8 4.1-.5 1.3-1.2 2.5-2.2 3.5-.9 1-2.1 1.8-3.4 2.4-1.2.6-2.7.9-4.3.9zm-6.3-10.8c0 1 .2 1.9.5 2.8.3.9.8 1.6 1.3 2.2.6.6 1.2 1.1 2 1.5.8.4 1.6.5 2.5.5s1.7-.2 2.5-.5c.8-.4 1.4-.9 2-1.5.6-.6 1-1.4 1.3-2.2.3-.9.5-1.8.5-2.8 0-1-.2-1.9-.5-2.8-.3-.9-.8-1.6-1.3-2.3-.6-.6-1.2-1.1-2-1.5-.8-.4-1.6-.5-2.5-.5-.9 0-1.7.2-2.4.6-.8.4-1.4.9-2 1.5-.6.6-1 1.4-1.3 2.3-.4.8-.6 1.7-.6 2.7zm29.2 10.6c-1.4 0-2.7-.3-3.9-.9-1.2-.6-2.2-1.4-3-2.3-.8-1-1.5-2.1-2-3.4-.5-1.3-.7-2.6-.7-4 0-1.5.2-2.9.7-4.2.5-1.3 1.1-2.5 2-3.4s1.9-1.7 3.1-2.3 2.5-.9 3.9-.9c1.7 0 3.2.4 4.4 1.2s2.3 1.8 3.1 3.1v-4h3.9v20.3c0 1.5-.3 2.9-.8 4-.6 1.2-1.3 2.2-2.3 3s-2.2 1.4-3.5 1.9c-1.4.4-2.8.6-4.4.6-2.3 0-4.2-.4-5.8-1.2-1.5-.8-2.8-1.9-3.9-3.3l2.5-2.3c.8 1.1 1.8 2 3.1 2.6s2.6.9 4.1.9c.9 0 1.8-.1 2.6-.4.8-.2 1.5-.6 2.1-1.1.6-.5 1.1-1.1 1.5-1.9s.5-1.7.5-2.8v-3.2c-.7 1.3-1.8 2.3-3.1 3s-2.6 1-4.1 1zm1.5-3.6c.7 0 1.3-.1 1.9-.3.6-.2 1.2-.5 1.7-.9s1-.8 1.3-1.3c.4-.5.6-1 .8-1.6V162c-.3-.7-.6-1.3-1-1.8s-.9-1-1.5-1.4c-.5-.4-1.1-.7-1.7-.9s-1.2-.3-1.8-.3c-1 0-1.8.2-2.6.6-.8.4-1.4 1-1.9 1.6-.5.7-.9 1.4-1.2 2.3-.3.9-.4 1.7-.4 2.6 0 1 .2 1.9.5 2.7.3.8.8 1.6 1.4 2.2.6.6 1.3 1.1 2.1 1.5.6.4 1.4.5 2.4.5zm34.6-24.9h4.2l3.5 9.6 3.5-9.6h4.2l-4.8 12.6 4.2 10.4 8.8-23.2h4.9L558.6 175h-3.8l-5.3-12.7-5.3 12.7h-3.8l-11.7-28.4h4.9l8.9 23.2 4.2-10.4-5-12.7zm34.9 28.7c-1 0-2-.2-2.8-.5-.9-.3-1.6-.8-2.2-1.4-.6-.6-1.1-1.3-1.5-2.1-.4-.8-.5-1.7-.5-2.6 0-1 .2-1.9.6-2.7s1-1.5 1.8-2.1c.8-.6 1.7-1 2.8-1.4a13.61 13.61 0 0 1 6.5-.2c1 .2 1.8.4 2.6.7v-1.4c0-1.5-.4-2.8-1.3-3.6-.9-.9-2.1-1.3-3.8-1.3-1.1 0-2.2.2-3.3.6-1.1.4-2.2 1-3.3 1.8l-1.4-2.8c2.7-1.8 5.5-2.7 8.4-2.7 2.9 0 5.1.7 6.7 2.2 1.6 1.5 2.4 3.6 2.4 6.3v7.6c0 .9.4 1.4 1.2 1.4v3.8c-.4.1-.8.1-1.1.2h-.9c-.9 0-1.5-.2-2-.6-.5-.4-.8-1-.9-1.6l-.1-1.3c-.9 1.2-2.1 2.2-3.5 2.8-1.3.6-2.8.9-4.4.9zm1.2-3.2c1.1 0 2.1-.2 3-.6.9-.4 1.7-.9 2.2-1.6.6-.5.8-1 .8-1.5v-2.8c-.7-.3-1.5-.5-2.4-.7-.8-.2-1.7-.2-2.5-.2-1.6 0-2.9.3-3.9 1s-1.5 1.6-1.5 2.7c0 1 .4 1.9 1.2 2.6 1 .7 1.9 1.1 3.1 1.1zm15.9-26.4h4.4V169c0 .8.2 1.4.6 1.8.4.4 1 .7 1.7.7.3 0 .6-.1 1-.2s.8-.2 1.1-.4l.6 3.4c-.6.3-1.4.5-2.3.7-.9.2-1.7.3-2.4.3-1.5 0-2.7-.4-3.5-1.2-.8-.8-1.3-2-1.3-3.5v-24.8zm26.5 29.2l-6.7-9.6-3.5 3.3v6.4h-4.4v-29.2h4.4v18.5l9.6-10.2h4.8l-8.1 8.8 8.6 12.1h-4.7zm7.4-24.4v-4.8h4.4v4.8h-4.4zm0 24.4v-20.9h4.4V175h-4.4zm28.4 0h-4.4v-11.7c0-2-.3-3.4-.9-4.3-.6-.9-1.6-1.3-2.8-1.3-.6 0-1.3.1-1.9.4-.6.2-1.2.6-1.8 1-.6.4-1.1 1-1.5 1.6-.4.6-.8 1.3-1 2V175h-4.4v-20.9h4v4.2c.8-1.4 2-2.5 3.5-3.3 1.5-.8 3.2-1.2 5-1.2 1.3 0 2.3.2 3.1.7s1.4 1.1 1.9 1.9c.5.8.8 1.7 1 2.7s.3 2.1.3 3.3V175zm13.4.2c-1.4 0-2.7-.3-3.9-.9-1.2-.6-2.2-1.4-3-2.3-.8-1-1.5-2.1-2-3.4-.5-1.3-.7-2.6-.7-4 0-1.5.2-2.9.7-4.2.5-1.3 1.1-2.5 2-3.4s1.9-1.7 3.1-2.3 2.5-.9 3.9-.9c1.7 0 3.2.4 4.4 1.2s2.3 1.8 3.1 3.1v-4h3.9v20.3c0 1.5-.3 2.9-.8 4-.6 1.2-1.3 2.2-2.3 3s-2.2 1.4-3.5 1.9c-1.4.4-2.8.6-4.4.6-2.3 0-4.2-.4-5.8-1.2-1.5-.8-2.8-1.9-3.9-3.3l2.5-2.3c.8 1.1 1.8 2 3.1 2.6s2.6.9 4.1.9c.9 0 1.8-.1 2.6-.4.8-.2 1.5-.6 2.1-1.1.6-.5 1.1-1.1 1.5-1.9s.5-1.7.5-2.8v-3.2c-.7 1.3-1.8 2.3-3.1 3s-2.6 1-4.1 1zm1.5-3.6c.7 0 1.3-.1 1.9-.3.6-.2 1.2-.5 1.7-.9s1-.8 1.3-1.3c.4-.5.6-1 .8-1.6V162c-.3-.7-.6-1.3-1-1.8s-.9-1-1.5-1.4c-.5-.4-1.1-.7-1.7-.9s-1.2-.3-1.8-.3c-1 0-1.8.2-2.6.6-.8.4-1.4 1-1.9 1.6-.5.7-.9 1.4-1.2 2.3-.3.9-.4 1.7-.4 2.6 0 1 .2 1.9.5 2.7.3.8.8 1.6 1.4 2.2.6.6 1.3 1.1 2.1 1.5.6.4 1.4.5 2.4.5zm44.6 3.4l-2.6-2.7c-1.2 1-2.5 1.8-3.9 2.3s-2.9.8-4.4.8c-1.4 0-2.7-.2-3.8-.6-1.1-.4-2.1-1-3-1.7-.8-.7-1.5-1.6-1.9-2.6-.5-1-.7-2.1-.7-3.2 0-.9.1-1.7.4-2.5.3-.8.7-1.5 1.1-2.2.5-.7 1-1.3 1.7-1.8.6-.6 1.3-1.1 2-1.6-.6-.7-1.1-1.3-1.5-1.8-.4-.6-.7-1.1-1-1.6-.3-.5-.4-1-.6-1.4-.1-.5-.2-1-.2-1.5 0-1 .2-1.8.6-2.7.4-.8.9-1.5 1.6-2.1.7-.6 1.5-1 2.4-1.4.9-.3 1.9-.5 3-.5 1 0 1.9.1 2.8.4.9.3 1.7.7 2.3 1.2.7.5 1.2 1.1 1.6 1.9.4.8.6 1.6.6 2.6 0 .8-.1 1.5-.4 2.2-.3.7-.7 1.3-1.1 1.9-.5.6-1 1.2-1.7 1.7s-1.4 1.1-2.1 1.6l6.4 6.7c.5-.9.8-1.9 1.1-3 .3-1.1.4-2.2.4-3.5h3.6c0 1.8-.3 3.5-.7 5s-1 2.9-1.8 4.1l5.7 5.9h-5.9zm-10.4-3.1c1 0 1.9-.2 2.9-.6s1.8-.9 2.5-1.6l-7.4-7.8c-1.1.8-2 1.6-2.6 2.4-.7.9-1 1.8-1 2.9 0 .7.1 1.3.4 1.9.3.6.7 1.1 1.2 1.5.5.4 1.1.7 1.8.9.7.3 1.4.4 2.2.4zm-3.8-19.2c0 .3 0 .5.1.8.1.3.2.5.4.9.2.3.5.7.8 1.1.4.4.8.9 1.3 1.5 1.2-.8 2.2-1.5 2.9-2.2.7-.7 1.1-1.5 1.1-2.3s-.3-1.5-.9-2.1c-.6-.5-1.4-.8-2.3-.8-1 0-1.8.3-2.5.9-.6.6-.9 1.3-.9 2.2zm33.2 22.3v-28.4h11.9c1.3 0 2.5.3 3.5.8s2 1.2 2.8 2.1c.8.9 1.4 1.9 1.8 3 .4 1.1.7 2.2.7 3.4 0 1.2-.2 2.4-.6 3.5-.4 1.1-1 2.1-1.7 3-.7.9-1.6 1.6-2.7 2.1s-2.2.8-3.5.8H739v9.9h-4.5zm4.5-13.8h7.4c.6 0 1.2-.1 1.7-.4.5-.3 1-.6 1.3-1.1.4-.5.7-1 .9-1.7.2-.6.3-1.3.3-2.1s-.1-1.5-.4-2.2c-.2-.6-.6-1.2-1-1.7s-.9-.8-1.5-1.1c-.5-.3-1.1-.4-1.7-.4h-7v10.7zm29 14.2c-1.6 0-3.1-.3-4.4-.9s-2.5-1.4-3.4-2.3-1.7-2.1-2.2-3.4c-.5-1.3-.8-2.7-.8-4.2s.3-2.9.8-4.2c.5-1.3 1.3-2.5 2.2-3.5s2.1-1.8 3.4-2.4 2.8-.9 4.5-.9c1.6 0 3.1.3 4.4.9 1.3.6 2.4 1.4 3.4 2.3s1.6 2.1 2.1 3.4c.5 1.3.7 2.6.7 4.1v.9c0 .3-.1.5-.1.7h-16.8c.1.9.3 1.8.7 2.5.4.7.8 1.4 1.4 1.9.6.5 1.2 1 2 1.3.7.3 1.5.4 2.3.4.6 0 1.2-.1 1.7-.2s1.1-.4 1.6-.6c.5-.3.9-.6 1.3-1s.7-.8.9-1.3l3.8 1.1c-.7 1.6-1.9 2.9-3.6 3.9-1.8 1-3.7 1.5-5.9 1.5zm6.3-12.4c-.1-.9-.3-1.7-.7-2.4-.4-.7-.8-1.4-1.4-1.9-.6-.5-1.2-.9-2-1.2-.7-.3-1.5-.4-2.4-.4-.8 0-1.6.1-2.3.4-.7.3-1.4.7-1.9 1.2-.6.5-1 1.2-1.4 1.9-.3.7-.6 1.6-.6 2.4h12.7zm19.5 10.9c-.6.3-1.3.6-2.3.9-1 .3-2 .5-3.2.5-.7 0-1.3-.1-2-.3s-1.2-.5-1.6-.8c-.5-.4-.8-.9-1.1-1.5-.3-.6-.4-1.3-.4-2.2v-13.1h-2.8V154h2.8v-6.9h4.4v6.9h4.6v3.4h-4.6v11.7c.1.7.3 1.3.7 1.6.4.3.9.5 1.5.5s1.2-.1 1.8-.3c.6-.2 1-.4 1.2-.5l1 3.5zm30.2-20.6c-.3-.3-.7-.6-1.2-.9-.5-.3-1.1-.6-1.8-.9-.7-.3-1.4-.5-2.2-.7-.8-.2-1.6-.3-2.5-.3-1.9 0-3.3.3-4.2 1s-1.3 1.7-1.3 2.9c0 .7.1 1.3.4 1.7.3.4.7.8 1.3 1.2.6.3 1.3.6 2.2.9.9.3 1.9.5 3.1.8 1.4.3 2.7.7 3.9 1.2s2.1.9 2.9 1.6c.8.6 1.4 1.4 1.9 2.3s.7 2 .7 3.3c0 1.4-.3 2.7-.8 3.7s-1.3 1.9-2.2 2.5c-.9.7-2 1.1-3.3 1.4-1.3.3-2.6.5-4 .5-2.2 0-4.2-.3-6.3-1-2-.7-3.8-1.6-5.5-2.9l2-3.8c.3.3.8.7 1.5 1.2.7.4 1.4.8 2.3 1.2.9.4 1.8.7 2.8.9 1 .3 2.1.4 3.2.4 1.8 0 3.1-.3 4.1-.9s1.4-1.5 1.4-2.7c0-.7-.2-1.3-.5-1.8-.4-.5-.9-.9-1.5-1.3-.7-.4-1.5-.7-2.4-1-1-.3-2.1-.6-3.3-.9-1.4-.4-2.6-.8-3.7-1.2-1.1-.4-1.9-.9-2.6-1.5-.7-.6-1.2-1.3-1.6-2.1-.4-.8-.5-1.7-.5-2.9 0-1.4.3-2.6.8-3.7s1.3-2 2.2-2.7 2-1.3 3.3-1.7c1.3-.4 2.6-.6 4.1-.6 1.9 0 3.7.3 5.3.9s3.1 1.4 4.3 2.3l-2.3 3.6zm16.6 22.1c-1.6 0-3.1-.3-4.4-.9s-2.5-1.4-3.4-2.3-1.7-2.1-2.2-3.4c-.5-1.3-.8-2.7-.8-4.2s.3-2.9.8-4.2c.5-1.3 1.3-2.5 2.2-3.5s2.1-1.8 3.4-2.4 2.8-.9 4.5-.9c1.6 0 3.1.3 4.4.9 1.3.6 2.4 1.4 3.4 2.3s1.6 2.1 2.1 3.4c.5 1.3.7 2.6.7 4.1v.9c0 .3-.1.5-.1.7h-16.8c.1.9.3 1.8.7 2.5.4.7.8 1.4 1.4 1.9.6.5 1.2 1 2 1.3.7.3 1.5.4 2.3.4.6 0 1.2-.1 1.7-.2s1.1-.4 1.6-.6c.5-.3.9-.6 1.3-1s.7-.8.9-1.3l3.8 1.1c-.7 1.6-1.9 2.9-3.6 3.9-1.8 1-3.7 1.5-5.9 1.5zM847 163c-.1-.9-.3-1.7-.7-2.4-.4-.7-.8-1.4-1.4-1.9-.6-.5-1.2-.9-2-1.2-.7-.3-1.5-.4-2.4-.4-.8 0-1.6.1-2.3.4-.7.3-1.4.7-1.9 1.2-.6.5-1 1.2-1.4 1.9-.3.7-.6 1.6-.6 2.4H847zm19.7-5.1c-1.7.1-3.2.4-4.5 1.2-1.3.7-2.3 1.8-2.8 3.1V175H855v-20.9h4.1v4.7c.7-1.4 1.7-2.6 2.8-3.5 1.2-.9 2.4-1.3 3.7-1.4h1.2v4zm9.1 17.1l-8-20.9h4.5l6 17.2 6-17.2h4.2l-8 20.9h-4.7zm15.8-24.4v-4.8h4.4v4.8h-4.4zm0 24.4v-20.9h4.4V175h-4.4zm8.3-10.5c0-1.5.3-2.9.8-4.2.5-1.3 1.2-2.5 2.2-3.4.9-1 2.1-1.8 3.4-2.3s2.8-.9 4.5-.9c2.2 0 4 .5 5.6 1.4 1.6.9 2.7 2.2 3.5 3.8l-4.3 1.4c-.5-.9-1.2-1.6-2-2.1-.9-.5-1.8-.7-2.8-.7-.9 0-1.7.2-2.5.5s-1.4.8-2 1.5c-.6.6-1 1.4-1.3 2.2-.3.9-.5 1.8-.5 2.8 0 1 .2 2 .5 2.8.3.9.8 1.6 1.4 2.3.6.6 1.2 1.1 2 1.5.8.4 1.6.5 2.4.5.5 0 1.1-.1 1.6-.2s1-.4 1.5-.6l1.2-.9c.3-.3.6-.7.7-1.1l4.3 1.3c-.7 1.6-1.9 2.9-3.5 3.9s-3.5 1.5-5.8 1.5c-1.6 0-3.1-.3-4.4-.9-1.3-.6-2.5-1.4-3.4-2.4s-1.7-2.2-2.2-3.5c-.6-1.3-.9-2.7-.9-4.2zm33 10.9c-1.6 0-3.1-.3-4.4-.9s-2.5-1.4-3.4-2.3-1.7-2.1-2.2-3.4c-.5-1.3-.8-2.7-.8-4.2s.3-2.9.8-4.2c.5-1.3 1.3-2.5 2.2-3.5s2.1-1.8 3.4-2.4 2.8-.9 4.5-.9c1.6 0 3.1.3 4.4.9 1.3.6 2.4 1.4 3.4 2.3s1.6 2.1 2.1 3.4c.5 1.3.7 2.6.7 4.1v.9c0 .3-.1.5-.1.7h-16.8c.1.9.3 1.8.7 2.5.4.7.8 1.4 1.4 1.9.6.5 1.2 1 2 1.3.7.3 1.5.4 2.3.4.6 0 1.2-.1 1.7-.2s1.1-.4 1.6-.6c.5-.3.9-.6 1.3-1s.7-.8.9-1.3l3.8 1.1c-.7 1.6-1.9 2.9-3.6 3.9-1.7 1-3.7 1.5-5.9 1.5zm6.4-12.4c-.1-.9-.3-1.7-.7-2.4-.4-.7-.8-1.4-1.4-1.9-.6-.5-1.2-.9-2-1.2-.7-.3-1.5-.4-2.4-.4-.8 0-1.6.1-2.3.4-.7.3-1.4.7-1.9 1.2-.6.5-1 1.2-1.4 1.9-.3.7-.6 1.6-.6 2.4h12.7zm15.5 12.4c-1.7 0-3.4-.3-5-.8s-3.1-1.3-4.3-2.3l1.8-2.8c1.3.9 2.5 1.6 3.7 2.1 1.2.5 2.5.7 3.8.7 1.3 0 2.3-.3 3.1-.8s1.1-1.2 1.1-2.2c0-.9-.4-1.5-1.3-1.9-.9-.4-2.2-.8-4-1.3-1.3-.3-2.4-.7-3.4-1s-1.7-.7-2.3-1.1c-.6-.4-1-.9-1.3-1.5-.3-.6-.4-1.2-.4-2 0-1.1.2-2 .6-2.8.4-.8 1-1.5 1.7-2.1.7-.6 1.6-1 2.6-1.3 1-.3 2.1-.4 3.2-.4 1.6 0 3 .2 4.4.7 1.4.5 2.6 1.2 3.6 2.1l-1.9 2.6c-1.9-1.5-4-2.3-6.2-2.3-1.1 0-2.1.2-2.8.7-.8.5-1.1 1.2-1.1 2.2 0 .4.1.8.2 1.1.2.3.4.5.8.8.4.2.8.4 1.4.6.6.2 1.3.4 2.1.6 1.4.3 2.6.7 3.7 1 1 .3 1.9.8 2.5 1.2.7.5 1.2 1 1.5 1.6.3.6.5 1.4.5 2.3 0 2-.8 3.6-2.3 4.7s-3.4 1.6-6 1.6z"/></svg>